<?xml version="1.0" encoding="utf-8"?>
<!-- Generator: Adobe Illustrator 20.1.0, SVG Export Plug-In . SVG Version: 6.00 Build 0)  -->
<svg version="1.1" id="Laag_1" xmlns="http://www.w3.org/2000/svg" xmlns:xlink="http://www.w3.org/1999/xlink" x="0px" y="0px"
	 viewBox="0 0 259.4 109.8" style="enable-background:new 0 0 259.4 109.8;" xml:space="preserve">
<style type="text/css">
	.st0{fill:#FFFFFF;}
	.st1{fill:url(#SVGID_1_);}
	.st2{fill:#76AD1C;}
</style>
<g>
	<path class="st0" d="M105.1,25c-5.3,0-9.8,1.9-13.6,5.6c-3.8,3.8-5.6,8.3-5.6,13.6c0,0.2,0,0.5,0,0.7v30.3l6.2,6.3V58.4
		c3.6,3.4,8,5.1,13,5.1c5.3,0,9.8-1.9,13.6-5.6c3.8-3.8,5.6-8.3,5.6-13.6s-1.9-9.8-5.6-13.6C114.9,26.9,110.4,25,105.1,25z
		 M114.3,53.5c-2.5,2.5-5.6,3.8-9.2,3.8s-6.7-1.3-9.2-3.8c-2.4-2.4-3.6-5.2-3.8-8.5v-0.7l0,0c0-3.6,1.3-6.7,3.8-9.2s5.6-3.8,9.2-3.8
		s6.7,1.3,9.2,3.8s3.8,5.6,3.8,9.2C118.1,47.9,116.8,50.9,114.3,53.5z M131.6,10.6h6.2v52.3h-6.2V10.6z M165.7,24.4
		c-5.3,0-9.8,1.9-13.6,5.6c-3.8,3.8-5.6,8.3-5.6,13.6s1.9,9.8,5.6,13.6c3.8,3.8,8.3,5.6,13.6,5.6s9.8-1.9,13.6-5.6
		c3.8-3.8,5.6-8.3,5.6-13.6s-1.9-9.8-5.6-13.6C175.5,26.3,171,24.4,165.7,24.4z M174.9,52.9c-2.5,2.5-5.6,3.8-9.2,3.8
		c-3.6,0-6.7-1.3-9.2-3.8s-3.8-5.6-3.8-9.2c0-3.6,1.3-6.7,3.8-9.2s5.6-3.8,9.2-3.8c3.6,0,6.7,1.3,9.2,3.8s3.8,5.6,3.8,9.2
		C178.7,47.3,177.4,50.3,174.9,52.9z M198.8,32.6c-1.1,0.9-1.6,2.1-1.6,3.6c0,1.7,1.5,3.3,4.6,4.7c5.3,2.4,8.1,3.8,8.4,4
		c3.1,2,4.6,4.6,4.6,7.7c0,3.1-1.2,5.7-3.6,7.8c-2.4,2.1-5.1,3.1-8.3,3.1c-3.3,0-6.1-1.2-8.4-3.5c-2.3-2.3-3.5-5.1-3.5-8.3v-0.4h6.2
		v0.1c0,1.7,0.6,3.1,1.7,4.2c1.1,1.1,2.5,1.7,4.2,1.7c1.4,0,2.7-0.4,3.8-1.3c1.1-0.8,1.7-1.9,1.7-3.3c0-1.8-1.5-3.3-4.5-4.6
		c-5.1-2.2-7.9-3.6-8.5-4c-3-2-4.5-4.7-4.5-8.1c0-3.1,1.2-5.7,3.5-7.8c2.4-2.1,5.1-3.2,8.2-3.2c3.3,0,6.1,1.1,8.4,3.4
		c2.3,2.3,3.5,5,3.6,8.3h-6.4c0-1.6-0.6-2.9-1.7-3.9c-1.1-1.1-2.4-1.6-4-1.6C201.2,31.2,199.9,31.7,198.8,32.6z M259.4,44.3
		c0-5.3-1.9-9.8-5.6-13.6c-3.8-3.8-8.3-5.6-13.6-5.6s-9.8,1.9-13.6,5.6c-3.8,3.8-5.6,8.3-5.6,13.6s1.9,9.8,5.6,13.6
		c3.8,3.8,8.3,5.6,13.6,5.6c4.2,0,7.9-1.2,11.3-3.6c2.7-2,4.8-4.4,6.1-7.3h-7.3c-0.9,1.2-2.1,2.1-3.4,2.9c-2,1.2-4.3,1.9-6.7,1.9
		c-3,0-5.7-0.9-8.1-2.8c-2.4-1.9-3.9-4.2-4.6-7.1h31.7C259.4,46.4,259.4,45.3,259.4,44.3z M227.6,41.2c0.7-2.8,2.2-5.2,4.6-7.1
		c2.4-1.9,5-2.8,8.1-2.8c3,0,5.7,0.9,8.1,2.8c2.4,1.9,3.9,4.2,4.6,7.1H227.6z"/>
	
		<radialGradient id="SVGID_1_" cx="39.0345" cy="723.6775" r="34.8658" gradientTransform="matrix(1 0 0 1 0 -680)" gradientUnits="userSpaceOnUse">
		<stop  offset="0" style="stop-color:#76AD1C"/>
		<stop  offset="0.1333" style="stop-color:#79AE21;stop-opacity:0.8667"/>
		<stop  offset="0.2598" style="stop-color:#80B12F;stop-opacity:0.7402"/>
		<stop  offset="0.3837" style="stop-color:#8CB741;stop-opacity:0.6163"/>
		<stop  offset="0.506" style="stop-color:#9CC05A;stop-opacity:0.494"/>
		<stop  offset="0.6272" style="stop-color:#B0CB79;stop-opacity:0.3728"/>
		<stop  offset="0.7476" style="stop-color:#C6D99F;stop-opacity:0.2524"/>
		<stop  offset="0.8673" style="stop-color:#DFEACB;stop-opacity:0.1327"/>
		<stop  offset="0.9836" style="stop-color:#FBFCF8;stop-opacity:1.637203e-02"/>
		<stop  offset="1" style="stop-color:#FFFFFF;stop-opacity:0"/>
	</radialGradient>
	<path class="st1" d="M43,44.2c0.8-0.4,1.6-0.9,2.5-1.4C84.7,20.9,97.4,0,97.4,0s-5.1,2-17.1,9.3C69.9,19.2,52.9,30.4,36.6,39
		C20.5,25.4,15.8,17.5,15.8,17.5s-3.3,2.1-5.7,3.6c5.3,7.9,12.4,15.3,19.5,21.7c-15,8.8-28,21.2-28,21.2l5.6,7.8
		c0,0,5.5-9.7,28.7-23.5c8,6.7,15.5,12.1,20.2,15.7c10.2,7.7,25,21.2,25,21.2s0,0,19.3,14.2C83.6,72.2,60.4,57.7,43,44.2z"/>
	<g>
		<path class="st0" d="M61.4,48.5h16.2v-7H61C74.5,31.1,87.9,19.4,100.2,0C83.4,23,64.7,33.5,46.3,44.2c21.7,16.7,44,29.8,62.8,65.6
			C94.6,79,78.1,63.3,61.4,48.5z"/>
		<path class="st0" d="M9,72.1c8.3-5.9,17-10.3,26-14c13.8,8.3,28.1,15.3,41.9,26.5C63.2,71,49.1,62.2,35.4,51.1
			C26.3,56.9,17.4,63.3,9,72.1z"/>
		<path class="st0" d="M8.3,21.6c3.9,7.6,7.6,13.7,11.6,19.8C12.9,47,6.4,53.9,0,62.3c8.2-8.6,17-14.7,26.1-20
			C20,36.4,14,29.7,8.3,21.6z"/>
		<path class="st0" d="M37.1,36.5c13.5-7.6,27.1-15.1,40.5-27.1C64.3,19.8,50.8,26.1,37,31.6c-6.6-4.2-13.1-9.1-19.4-15.2
			C23.8,24.2,30.6,30.8,37.1,36.5z"/>
	</g>
	<g>
		<polygon class="st2" points="156.1,78.4 151.7,78.4 151.7,74.7 150.2,74.7 150.2,83.4 151.7,83.4 151.7,79.7 156.1,79.7 
			156.1,83.4 157.6,83.4 157.6,74.7 156.1,74.7 		"/>
		<path class="st2" d="M164.5,74.6c-1.3,0-2.5,0.4-3.3,1.3c-0.9,0.8-1.3,1.9-1.3,3.2c0,1.3,0.4,2.3,1.3,3.2c0.9,0.8,2,1.3,3.3,1.3
			c1.4,0,2.5-0.4,3.4-1.3c0.9-0.8,1.4-1.9,1.4-3.2c0-1.3-0.5-2.4-1.3-3.2C166.9,75,165.8,74.6,164.5,74.6z M164.5,82.1
			c-0.9,0-1.7-0.3-2.2-0.9c-0.6-0.6-0.9-1.3-0.9-2.2c0-0.9,0.3-1.6,0.9-2.2c0.6-0.6,1.4-0.9,2.3-0.9c0.9,0,1.6,0.3,2.2,0.9
			c0.6,0.6,0.9,1.3,0.9,2.2c0,0.9-0.3,1.6-0.9,2.2C166.1,81.8,165.4,82.1,164.5,82.1z"/>
		<path class="st2" d="M174.3,78.6l-0.9-0.5c-0.4-0.2-0.7-0.5-0.9-0.7s-0.2-0.4-0.2-0.6s0.1-0.4,0.3-0.6s0.5-0.2,0.9-0.2
			c0.7,0,1.3,0.3,1.9,0.8l0.2,0.2l-0.1-1.8c-1.3-0.8-3-0.8-3.9,0c-0.5,0.4-0.7,1-0.7,1.7c0,0.5,0.1,0.9,0.4,1.3
			c0.3,0.4,0.7,0.7,1.3,1.1l0.9,0.6c0.7,0.4,1,0.9,1,1.3c0,0.3-0.1,0.5-0.3,0.7s-0.5,0.3-0.9,0.3c-0.8,0-1.5-0.4-2.2-1.2l-0.2-0.3
			l0.1,2c0.7,0.5,1.5,0.8,2.4,0.8c0.8,0,1.4-0.2,1.9-0.7c0.5-0.4,0.7-1,0.7-1.7C176,80.1,175.4,79.3,174.3,78.6z"/>
		<polygon class="st2" points="177.3,76 180.2,76 180.2,83.4 181.7,83.4 181.7,76 184.6,76 184.6,74.7 177.3,74.7 		"/>
		<rect x="186.5" y="74.7" class="st2" width="1.5" height="8.7"/>
		<polygon class="st2" points="197.2,81 191.7,74.7 190.6,74.7 190.6,83.4 192,83.4 192,77.1 197.5,83.4 198.7,83.4 198.7,74.7 
			197.2,74.7 		"/>
		<path class="st2" d="M205.7,79v1.3h1.6v1.5c-0.7,0.2-1.2,0.3-1.7,0.3c-1,0-1.7-0.3-2.3-0.9s-0.9-1.3-0.9-2.2
			c0-0.9,0.3-1.6,0.9-2.2c1.3-1.3,3.3-1.1,5.2,0l0.2,0.1v-1.6h-0.1c-0.7-0.3-1.2-0.5-1.6-0.6s-0.9-0.2-1.4-0.2
			c-1.3,0-2.5,0.4-3.4,1.3s-1.3,2-1.3,3.2s0.4,2.3,1.3,3.1c0.9,0.8,2,1.3,3.4,1.3c1,0,2.1-0.2,3.1-0.7h0.1V79H205.7z"/>
	</g>
</g>
</svg>
